<?xml version="1.0" encoding="utf-8"?>
<!-- Generator: Adobe Illustrator 23.0.3, SVG Export Plug-In . SVG Version: 6.00 Build 0)  -->
<svg version="1.1" id="Слой_1" xmlns="http://www.w3.org/2000/svg" xmlns:xlink="http://www.w3.org/1999/xlink" x="0px" y="0px"
	 viewBox="0 0 190.5 183.8" style="enable-background:new 0 0 190.5 183.8;" xml:space="preserve">
<style type="text/css">
	.st0{fill:none;stroke:#000000;stroke-width:0.75;stroke-miterlimit:22.9256;}
	.st1{fill-rule:evenodd;clip-rule:evenodd;fill:#0C323C;}
	.st2{fill-rule:evenodd;clip-rule:evenodd;fill:#172D42;stroke:#000000;stroke-width:0.75;stroke-miterlimit:22.9256;}
	.st3{fill-rule:evenodd;clip-rule:evenodd;fill:#8CA5BB;stroke:#000000;stroke-width:0.75;stroke-miterlimit:22.9256;}
	.st4{fill-rule:evenodd;clip-rule:evenodd;fill:#3B88B5;stroke:#000000;stroke-width:0.75;stroke-miterlimit:22.9256;}
	.st5{fill-rule:evenodd;clip-rule:evenodd;fill:#556B76;stroke:#000000;stroke-width:0.75;stroke-miterlimit:22.9256;}
	.st6{fill-rule:evenodd;clip-rule:evenodd;fill:#051B26;stroke:#000000;stroke-width:0.75;stroke-miterlimit:22.9256;}
	.st7{fill-rule:evenodd;clip-rule:evenodd;fill:#F4F5F4;stroke:#000000;stroke-width:0.75;stroke-miterlimit:22.9256;}
	.st8{fill-rule:evenodd;clip-rule:evenodd;fill:#0C323C;stroke:#000000;stroke-width:0.75;stroke-miterlimit:22.9256;}
	.st9{fill-rule:evenodd;clip-rule:evenodd;fill:#274A66;stroke:#000000;stroke-width:0.75;stroke-miterlimit:22.9256;}
	.st10{fill-rule:evenodd;clip-rule:evenodd;fill:#142D3C;stroke:#000000;stroke-width:0.75;stroke-miterlimit:22.9256;}
	.st11{fill-rule:evenodd;clip-rule:evenodd;fill:#677889;stroke:#000000;stroke-width:0.75;stroke-miterlimit:22.9256;}
	.st12{fill-rule:evenodd;clip-rule:evenodd;fill:#273738;stroke:#000000;stroke-width:0.75;stroke-miterlimit:22.9256;}
	.st13{fill-rule:evenodd;clip-rule:evenodd;fill:#428AB4;stroke:#000000;stroke-width:0.75;stroke-miterlimit:22.9256;}
	.st14{fill-rule:evenodd;clip-rule:evenodd;fill:#305173;stroke:#000000;stroke-width:0.75;stroke-miterlimit:22.9256;}
	.st15{fill-rule:evenodd;clip-rule:evenodd;fill:#4EA9E8;stroke:#000000;stroke-width:0.75;stroke-miterlimit:22.9256;}
	.st16{fill-rule:evenodd;clip-rule:evenodd;fill:#142C42;stroke:#000000;stroke-width:0.75;stroke-miterlimit:22.9256;}
	.st17{fill-rule:evenodd;clip-rule:evenodd;fill:#AF790D;stroke:#000000;stroke-width:0.75;stroke-miterlimit:22.9256;}
	.st18{fill-rule:evenodd;clip-rule:evenodd;fill:#50A7D8;stroke:#000000;stroke-width:0.75;stroke-miterlimit:22.9256;}
	.st19{fill-rule:evenodd;clip-rule:evenodd;fill:#E3A730;stroke:#000000;stroke-width:0.75;stroke-miterlimit:22.9256;}
	.st20{fill-rule:evenodd;clip-rule:evenodd;fill:#4D8AAE;stroke:#000000;stroke-width:0.75;stroke-miterlimit:22.9256;}
	.st21{fill-rule:evenodd;clip-rule:evenodd;fill:#6D90AC;stroke:#000000;stroke-width:0.75;stroke-miterlimit:22.9256;}
	.st22{fill-rule:evenodd;clip-rule:evenodd;fill:#354F53;stroke:#000000;stroke-width:0.75;stroke-miterlimit:22.9256;}
	.st23{fill-rule:evenodd;clip-rule:evenodd;fill:#A76E23;stroke:#000000;stroke-width:0.75;stroke-miterlimit:22.9256;}
	.st24{fill-rule:evenodd;clip-rule:evenodd;fill:#95A7B8;stroke:#000000;stroke-width:0.75;stroke-miterlimit:22.9256;}
	.st25{fill-rule:evenodd;clip-rule:evenodd;fill:#8CAABC;stroke:#000000;stroke-width:0.75;stroke-miterlimit:22.9256;}
	.st26{fill-rule:evenodd;clip-rule:evenodd;fill:#083645;stroke:#000000;stroke-width:0.75;stroke-miterlimit:22.9256;}
	.st27{fill-rule:evenodd;clip-rule:evenodd;fill:#2D3034;stroke:#000000;stroke-width:0.75;stroke-miterlimit:22.9256;}
	.st28{fill:none;stroke:#2B2A29;stroke-width:0.75;stroke-miterlimit:22.9256;}
	.st29{fill-rule:evenodd;clip-rule:evenodd;fill:#B0B08E;stroke:#2B2A29;stroke-width:0.75;stroke-miterlimit:22.9256;}
</style>
<g id="Слой_x0020_1">
	<path class="st0" d="M4.6,106.8c0-0.4,0-0.8,0.1-1.3 M8.5,98.1c0.9-1,1.9-1.7,2.8-2.2c0.2-0.1,0.3-0.2,0.4-0.4
		c2.9-6.1,10.6-8,16.7-8c0.2,0,0.3,0,0.4-0.1l1.2-0.7c-14.7-12-12.6-29.6-10.9-48.2 M19.1,30.2c-0.2-12.4,13-27.5,25.6-27.1
		c0.2,0,0.4-0.1,0.6-0.2c3.4-2.4,17.2,0.3,21,2c5.7,2.5,10,6.2,13.2,11.4 M107.4,128.7c3.9-4.7,11.7-7.9,18-8.1 M131.6,105.6
		l-2.8,0.1c0,0,0,0-0.1,0l-4.2-0.2c-0.5,0-0.9-0.4-0.9-0.9l0-7c0-0.3,0.1-0.5,0.3-0.7c1.2-1,1.3-0.7,2.6-1.8
		c0.1-0.1,0.2-0.1,0.3-0.2c6-2.2,23.7-3.9,28.6,0.4 M167.2,109.1c10.3-4,16.3-3.9,22.1,6.1"/>
	<path class="st0" d="M173.4,183.6l-7.3-0.1h-6.6l-50.1-0.2 M94.9,183.5l-1.6,0.3"/>
	<g>
		<path class="st1" d="M36.1,140.8c2.6-0.2,26.2-0.4,30.8-0.2c0.4,0,0.8,0.4,0.9,0.8c0.6,5-0.1,19.2-0.8,23.6
			c-1.3,8.8-9.3,8-16.4,7.4c-6.4-0.6-15.4,0.4-15.7-8.3C34.6,157.5,35.1,147.3,36.1,140.8L36.1,140.8z M35.6,114.6
			c6.7-4.6,10.4,5.6,5.2,8.3C35.5,125.6,29.7,118.6,35.6,114.6z M82.7,98.9l6.9-6.9c0.4-0.4,0.3-1.1-0.2-1.4l-3-1.8c0,0-0.1,0-0.1,0
			c-4-1.9-10.2-3.4-14.2-1.1c-5.5,3.3-6.1,19.7-8.8,26.4c-0.1,0.3-0.5,0.6-0.9,0.6c-3-0.1-16.4-0.3-19.5-0.4c-0.4,0-0.7-0.2-0.8-0.6
			C39,105.2,36,92.9,29,87.7c-0.2-0.1-0.4-0.2-0.6-0.2c-5.7,0.1-12.8,1.7-16,6.8c-0.4,0.6,0.1,1.4,0.8,1.4
			c7.7,0.3,13.5,11.1,16.1,17.5c3,7.1,1.2,6.6-1.5,13.3c-1.9,4.7-2.9,9.2-4.5,13.9l-0.5,1.3c0,0,0,0.1,0,0.1l-0.9,4.7
			c-1,2.3,0.8,29.9,1.6,36.2c0.1,0.5,0.4,0.8,0.9,0.8c6.3,0,48.4,0.1,54,0.1c0.4,0,0.7-0.2,0.9-0.6l1-2.6c0-0.1,0.1-0.2,0.1-0.3
			c0.1-10.6,2.7-24.5,1.7-34.7c0-0.1,0-0.1,0-0.2c-0.3-1.1-3.6-13-3.8-13.7c0,0,0,0,0-0.1l-1.2-6c0-0.1,0-0.2,0-0.4L82.7,98.9
			L82.7,98.9z"/>
		<path class="st0" d="M36.1,140.8c2.6-0.2,26.2-0.4,30.8-0.2c0.4,0,0.8,0.4,0.9,0.8c0.6,5-0.1,19.2-0.8,23.6
			c-1.3,8.8-9.3,8-16.4,7.4c-6.4-0.6-15.4,0.4-15.7-8.3C34.6,157.5,35.1,147.3,36.1,140.8L36.1,140.8z M35.6,114.6
			c6.7-4.6,10.4,5.6,5.2,8.3C35.5,125.6,29.7,118.6,35.6,114.6z M82.7,98.9l6.9-6.9c0.4-0.4,0.3-1.1-0.2-1.4l-3-1.8c0,0-0.1,0-0.1,0
			c-4-1.9-10.2-3.4-14.2-1.1c-5.5,3.3-6.1,19.7-8.8,26.4c-0.1,0.3-0.5,0.6-0.9,0.6c-3-0.1-16.4-0.3-19.5-0.4c-0.4,0-0.7-0.2-0.8-0.6
			C39,105.2,36,92.9,29,87.7c-0.2-0.1-0.4-0.2-0.6-0.2c-5.7,0.1-12.8,1.7-16,6.8c-0.4,0.6,0.1,1.4,0.8,1.4
			c7.7,0.3,13.5,11.1,16.1,17.5c3,7.1,1.2,6.6-1.5,13.3c-1.9,4.7-2.9,9.2-4.5,13.9l-0.5,1.3c0,0,0,0.1,0,0.1l-0.9,4.7
			c-1,2.3,0.8,29.9,1.6,36.2c0.1,0.5,0.4,0.8,0.9,0.8c6.3,0,48.4,0.1,54,0.1c0.4,0,0.7-0.2,0.9-0.6l1-2.6c0-0.1,0.1-0.2,0.1-0.3
			c0.1-10.6,2.7-24.5,1.7-34.7c0-0.1,0-0.1,0-0.2c-0.3-1.1-3.6-13-3.8-13.7c0,0,0,0,0-0.1l-1.2-6.2"/>
	</g>
	<path class="st2" d="M35.7,27.7c-1.8,1.2-3.1,1.5-4.8,0.3c-0.2-0.2-0.4-0.5-0.4-0.8c0-0.8-0.4-2,2.7-1.7
		C36.9,25.8,35,25.8,35.7,27.7L35.7,27.7z M19.1,30.2l-1.9,0.9c-0.3,0.1-0.5,0.5-0.5,0.8l-0.2,3.6c0,0.3,0.1,0.5,0.3,0.7l2.1,2
		c0.2,0.2,0.3,0.5,0.3,0.7C17.5,57.3,15.5,74.7,30,86.7c0.1,0,0.1,0.1,0.2,0.1c0.8,0.4,7.6,4.1,8.1,4.3c0,0,0,0,0.1,0
		c9.5,4.3,16.1,3.1,25.6,0.5c0.4-0.1,0.7-0.5,0.7-1c-0.3-3.9,0.5-14.9,0.5-18.8c0-6.3-0.5-14.1,0-20.3c0-0.4-0.2-0.8-0.6-0.9
		c-6-2.1-26.9,0.6-34.9-0.9c-0.6-0.1-0.9-0.7-0.7-1.2c1-2.8,0.7,1.1,1.6-3c0-0.1,0-0.1,0-0.2c0-1,0.1-11.5,0.2-14.6
		c0-0.5,0.4-0.9,0.9-0.9h31.2c-3.7-1.5-12.4-0.1-19.1-0.4c-1.1-0.1-1.2-1.7,0-1.8l7.3-0.7c0.2,0,0.3,0,0.3,0c4,0,8-0.1,12,0.1
		c0.6,0,1-0.5,0.9-1C62.7,16.5,57,9.4,50.6,3.5l1.3,0.3c0.1,0,0.2,0,0.3,0l3-0.2L45,3.1C32.3,2.4,18.9,17.7,19.1,30.2L19.1,30.2z"/>
	<path class="st3" d="M11.7,95.8c-10.8,4.4-10.5,36.5-11,46.1l-0.4,34.4c0,0-0.1,3.6-0.3,6.5c0,0.9,2.1,0.9,2.9,0.9h11.4
		c0.5,0,0.9-0.4,0.9-1c-0.3-7.3,0.8-14.9,1-22.2c0.8-16.7-1.5-13.4-4.6-16.1c-0.6-0.5-0.4-1.4,0.3-1.6l1.3-0.4
		c0.7-0.2,1-0.9,0.7-1.4l-0.8-1.4c-0.3-0.5,0-1.2,0.5-1.3l1.5-0.5l0.1,0.1c0.3-2.8,0-5.7-0.5-8.5c-0.2-1.1,1.5-1.5,1.8-0.4
		c1.4,4.8,2.7,9.4,3.4,11.2c0.2,0.4,0.6,0.6,1,0.6c0.6-0.1,1.5-0.2,1.5-0.2c0.5-0.1,0.8-0.3,0.9-0.6c1.5-4.5,2.5-8.8,4.3-13.4
		c2.7-6.8,4.5-6.2,1.5-13.3C26.6,106.4,20.1,94.6,11.7,95.8L11.7,95.8z"/>
	<path class="st4" d="M109.6,174.2l-0.2,8.3c0,0.5,0.4,0.9,0.9,0.9l48.1,0.2c0.5,0,1-0.5,0.9-1c-0.6-5.6-0.6-18.6,0.5-24.9
		c0.1-0.6-0.3-1.1-0.9-1.1c-6.7,0-42.1,0-48.3,0c-0.5,0-0.9,0.4-0.9,0.9L109.6,174.2z"/>
	<path class="st3" d="M82.7,98.9c-1.5,1.7-4.2,13.3-5.2,21.7l-0.2,1.3c-0.2,1.5-0.2,1.7-0.3,1.9c0,0.1,0,0.2,0,0.2l0,1.6
		c0,0.1,0,0.1,0,0.2l1.2,6.1c1.1-2.7-0.5-4.2,1.5-8.2c0.2-0.3,0.5-0.5,0.8-0.5c1.6,0,1.8,0.8,2.7,2.2c0.3,0.5,1.1,0.6,1.5,0.1
		c0.5-0.6,1.3-1.5,2.1-2.4c0.7-0.8,1.9-0.1,1.6,0.9c-2,6-2.4,6.6-1.5,6.9c0.8,0.2,1,1.3,0.2,1.7c-0.7,0.3-1.2,0.6-1.9,1.2
		c-0.2,0.2-0.4,0.5-0.3,0.8c0.9,7.3,2.1,14.3,5.2,20.9c4,8.5,8.7,8.6,18.3,8.2c1.2-0.2,0.6,0.8,0.3,1.7c-0.1,0.5,0.1,0.9,0.6,1.1
		l0.5,0.2l0.1-9.3c0-0.4-0.3-0.8-0.7-0.9c-1.4-0.4-0.8-1.6-0.7-3.7c0-0.2,0.1-0.3,0.2-0.5c1.4-2.1,2-3.1,0.3-5.2
		c-0.4-0.5-1.1-0.5-1.5,0.1c-0.6,0.9-0.8,1.9-1.2,3c-0.2,0.7-1.3,0.5-1.3-0.2l0-0.7c0-0.6-0.7-0.9-1.1-0.5l-2.6,2.4
		c-0.5,0.5-1.3-0.1-1.1-0.7l0.1-0.3c0.2-0.5-0.3-1-0.9-0.9l-1.4,0.5c-0.7,0.3-1.5-0.5-1.2-1.2c2.6-6.4,3.1-3.7,1.7-14.4
		c-0.7-5.3-2.7-14.7-1.7-19.5c0-0.1,0-0.1,0-0.2c-0.3-6.6,0.9-13.3-1.9-17.6L91,92c-0.3-0.4-1-0.5-1.4-0.1L82.7,98.9L82.7,98.9z"/>
	<path class="st4" d="M143.9,130.6c7.9,1.3,20,8.1,22.5,19.5c0.1,0.5-0.2,0.9-0.6,1.1c-2.5,0.8-2.8,0.6-5.4,0.4
		c-0.3,0-0.6-0.2-0.8-0.6c-2.4-5.7,0.9-9.5-15.5-18.2c-0.3-0.2-0.6-0.3-0.8-0.4C142.4,131.9,142.8,130.5,143.9,130.6z M113.2,141.1
		c-0.8,1.1-1.3,1.7-1.6,2.2c-0.5,0.8-0.9,1.2-1.4,2.6c-0.1,0.4-0.3,0.8-0.4,1.4c-0.2,1,0.3,2.1-0.4,4.4c0.3,0,0.5,0.1,0.8,0.2
		c0.1,0,0.2,0,0.3,0l62-0.2c0.6,0,1-0.5,0.9-1.1c-0.9-5.1-3.3-11.1-7.5-14.3c-5-3.9-12-6.1-17.8-6.9c0,0-0.1,0-0.1,0
		c-0.9,0-11.8,0-12.7,0c0,0-0.1,0-0.1,0C125.8,130.4,118.6,133.8,113.2,141.1z"/>
	<path class="st2" d="M40.6,3.4c1.8,1.3,13.2,1.5,14.3,2.1c5,2.8,4.9,1.7,9.5,8.5c8.3,12.4,3.1,8.5,7.9,11.2
		c0.3,0.2,0.5,0.4,0.5,0.7c0.1,2.1,0.7,10.6,0.8,11.3c0,0,0,0.1,0,0.1c-0.1,3.2-0.6,7.8,0.9,10.1c0.1,0.1,0.1,0.2,0.1,0.3
		c0,0.3,0.1,0.8,0.2,1.2c0.1,0.4-0.1,0.7-0.4,0.9c-4.3,2.8-1.5,0.6-2.2,17.4c-0.2,4,0.2,7.3,0.1,11.3c-0.1,5.8-0.8,5.6-0.5,7.3
		c0.1,0.6,0.8,0.9,1.3,0.6c16.4-8.8,9.9-31.4,11.4-47.9c0.1-1.8,0.3-3.9,0.2-5.9c-0.5-5.8-2.7-11.2-5.1-16.3c0,0,0-0.1-0.1-0.1
		C76.3,11.1,72,7.4,66.3,4.9c-2.1-1-6.7-2.3-11.3-2.8c-4.4-0.5-8.8-0.2-10.6,0.3L40.6,3.4L40.6,3.4z"/>
	<path class="st5" d="M54.2,170.2c0.4,0.6,0,1.3-0.7,1.4c-6.4,0.7-14.7,0.5-15.6-6.8c-0.8-6.3-1.2-15.5,0.8-21.5
		c0.1-0.4,0.5-0.6,0.9-0.6c2.5,0,11.3-0.2,14.3-0.3c0.5,0,0.9,0.3,0.9,0.8c0.4,5.2-1.9,9.8-2.9,14.8
		C50.1,166.5,51.4,166.1,54.2,170.2z M36.1,140.8c-1,6.5-1.5,16.6-1.2,23.3c0.4,8.7,9.3,7.7,15.7,8.3c7.1,0.7,15.1,1.4,16.4-7.4
		c0.7-4.3,1.3-18.5,0.8-23.5c0-0.5-0.4-0.8-0.9-0.8C62.2,140.5,38.7,140.7,36.1,140.8L36.1,140.8z"/>
	<path class="st3" d="M28.8,87.5c7.1,5.1,10.2,17.6,13.6,26.2c0.1,0.3,0.5,0.6,0.8,0.6c3,0.1,16.4,0.3,19.5,0.4
		c0.4,0,0.7-0.2,0.9-0.6c2.2-5.4,2.9-17.1,6-23.2c0.4-0.8-0.4-1.7-1.2-1.2l-1.6,0.8c-0.5,0.2-0.6,0.5-0.7,0.7
		c-0.7,2.5-1.7,2.9-3.4,4c-0.2,0.2-0.4,0.4-0.4,0.7l-0.2,1.8c0,0.4-0.4,0.7-0.7,0.8c-9.4,1.8-7.9,3.4-18.4,0.1
		c-0.3-0.1-0.5-0.3-0.6-0.6L42,97c-0.1-0.3-0.2-0.5-0.3-0.6c-1.9-1.6-2.9-2.4-3.3-4.9c0-0.3-0.2-0.5-0.5-0.7
		c-1.4-0.7-5.9-3.2-7.3-3.9c-0.3-0.2-0.6-0.1-0.9,0L28.8,87.5z"/>
	<path class="st6" d="M53.6,171.6c0.7-0.1,1-0.8,0.7-1.4c-2.8-4.2-4.2-3.7-2.2-12.2c1.1-5,3.4-9.6,2.9-14.8c0-0.5-0.5-0.8-0.9-0.8
		c-3.1,0.1-11.8,0.2-14.3,0.3c-0.4,0-0.7,0.3-0.9,0.6c-2,6-1.6,15.2-0.8,21.5C38.8,172.2,47.2,172.3,53.6,171.6z"/>
	<path class="st7" d="M175.1,120.8l0.3-0.5c0.4-0.7,1.5-0.6,1.7,0.2c0.2,0.8,0.1,1.2-0.4,2c-0.4,0.5-1.2,0.5-1.5-0.1
		C174.9,122,174.9,122,175.1,120.8z M168.2,115.4c3.8-7.5,18.5-3.2,15.1,1.5c-0.2,0.3-0.6,0.4-0.9,0.4c-1.6-0.3-1.4-1.1-3.2-2.4
		c-0.3-0.2-0.6-0.2-0.9-0.1c-1.8,0.7,0.1-0.9-1.7,2.5c-0.3-2.8-0.5-4.5-4.5-1.8c-2.4,1.7-1.3,3-3.6,1.2
		C168.1,116.3,168,115.8,168.2,115.4z M163.8,119.4l0.6,4.8c0,0.1,0,0.1,0,0.2c4.3,14.1,24.8,10.3,23.3-4.6
		C186.5,107.5,168.4,104.1,163.8,119.4L163.8,119.4z"/>
	<path class="st8" d="M135,120.5l-9.6,0.1c-6.3,0.2-14.1,3.4-18,8.1l-4.7,5.9c0,0-0.1,0.1-0.1,0.1l-1.1,2c-0.2,0.3-0.1,0.6,0,0.9
		c0.9,1.4,0.2,2,3.6-2.9c0.8-1.1,1.5-2.1,2.2-3.2c4.6-7.5,15.4-9.6,24-9.5h3l0.4,0.7c0.1,0.1,0.1,0.3,0.1,0.4l0.2,5.4
		c0,0.5,0.4,0.9,0.9,0.9h11c0.5,0,0.9-0.4,0.9-0.9l-0.1-4.4c0-0.5,0.4-1,0.9-0.9l13.2,0.3c0.1,0,0.2,0,0.3,0l0.9,0.3
		c0.6,0.2,1.3-0.3,1.2-1l-0.3-2.8c0-0.5-0.4-0.8-0.9-0.8h-1.3l-12.9-0.3c-0.5,0-0.9-0.4-0.9-0.9l-0.1-2c0,0,0-0.1,0-0.1l-0.3-2.4
		c-0.1-0.4-0.4-0.7-0.8-0.8l-1.2-0.2c-0.1,0-0.1,0-0.2,0l-8,0.5c0,0-0.1,0-0.1,0l-1-0.1c-0.5,0-0.9,0.4-1,0.9L135,120.5L135,120.5z"
		/>
	<path class="st0" d="M189.2,115.2c6.2,15.8-11.1,26.7-23.5,16.6"/>
	<path class="st9" d="M64.7,91.4l1.4-0.6c0,0,0,0,0.1,0l6.1-3.1l-0.3-0.6c-0.9-3.2,0.1-1.7,0.3-8.5c0.1-4-0.2-7.3-0.1-11.3
		C72.6,54,71,52.6,72.4,51.2c0.6-0.6,0.2-1.6-0.6-1.6l-43.2,0c7.1,1.8,29.6-1.1,35.9,0.9c0.4,0.1,0.7,0.5,0.6,0.9
		c-0.5,6.2,0,14.1,0,20.3C65.1,76.1,64.2,88.4,64.7,91.4L64.7,91.4z"/>
	<path class="st10" d="M109.8,156.5h50.3l6.1,0.1l6.6,0c0.3,0,0.6-0.1,0.7-0.3c1.1-1.4,0.9-2.4,0.2-3.9c-0.2-0.3-0.5-0.5-0.8-0.5
		l-50.7,0.1c-4.3-0.1-8.9-0.5-13.1,0.3c-0.4,0.1-0.7,0.4-0.7,0.9C108.2,155.3,107.7,156.3,109.8,156.5L109.8,156.5z"/>
	<path class="st3" d="M49.9,31.4c2.2,0.6,5.5,0.5,7.8-0.2c0.1,0,0.3-0.1,0.4,0c1.5,0.2,3,0.2,4.4,0.6c0.1,0,0.2,0,0.3,0
		c0.6,0,3.3-0.1,4.8-0.1c0.5,0,0.9,0.4,0.9,0.9l-0.3,8.7c0,0.1,0,0.2,0.1,0.3c0.9,2.6,0.8,2,0.5,4.6c0,0.4-0.3,0.7-0.7,0.8L67,47.3
		c-0.1,0-0.2,0.1-0.3,0.2c-0.3,0.3-1.5,1.1-3.8,0.1c-0.1,0-0.2-0.1-0.3-0.1c-1.6,0-13.6-0.2-14.6-0.2c0,0-0.1,0-0.1,0L46,47.6
		c-0.1,0-0.1,0-0.2,0L44,47.5c0,0,0,0-0.1,0c-2.1,0-8.8,0.8-9.2-0.8C34.1,43.2,33.6,35.9,34,32c0-0.4,0.4-0.8,0.8-0.8
		C40,30.8,43.9,32.4,49.9,31.4L49.9,31.4z M28.6,49.5h45.1c0.6,0,1-0.5,0.9-1.1l-0.1-0.4c-0.1-0.4-0.3-0.6-0.7-0.7l-0.9-0.2
		c-0.4-0.1-0.7-0.5-0.7-0.9l0.1-15.7c0-0.5-0.4-0.9-0.9-0.9l-8.8,0.2H31.6c-0.5,0-0.9,0.4-0.9,0.9l-0.2,14.6c0,0.1,0,0.1,0,0.2
		C29.5,50.1,30,44.9,28.6,49.5L28.6,49.5z"/>
	<path class="st0" d="M173.4,151.8c1,1.7,1.3,2.9,0,4.5c-0.1,0.2-0.2,0.4-0.2,0.6l0.2,26.7"/>
	<path class="st0" d="M110.9,142l2.1-0.8c0.2-0.1,0.3-0.2,0.4-0.3c5.2-6.9,12.1-10.4,20.9-11.2c0.5,0,0.9-0.5,0.8-0.9l-0.2-5.6
		 M131.4,122.2c-8.6-0.2-19.5,2-24,9.5"/>
	<path class="st11" d="M78.3,131.5c-0.1,0.2-0.1,0.3,0,0.5c0.5,1.8,3.6,12.9,3.7,13.5c0,0,0,0,0,0.1c2.1,6.5,5.9,11,8.4,16.2
		c1.2,2.3,1.3,2.9,3.4,4c0.1,0,0.1,0,0.2,0.1l1.9,0.6c0,0,0.1,0,0.1,0l1.3,0.3c0.1,0,0.2,0,0.3,0l5-0.4l3.4-0.3c0,0,0.1,0,0.1,0
		l2.7,0.2c0.4-0.8,1-0.9,0-2.2c-0.2-0.2-0.5-0.4-0.8-0.4c-9.3,0.4-13.9,0.2-17.8-8.2c-3.1-6.7-4.3-13.6-5.2-20.9
		c0-0.3,0.1-0.6,0.3-0.8c0.7-0.6,1.3-0.9,2-1.2c0.8-0.4,0.6-1.5-0.2-1.7c-0.9-0.2-0.6-0.7,1.5-6.8c0.3-1-0.9-1.7-1.6-0.9l-1.8,2.1
		c-0.7,0.8-1.4,0.7-1.8,0.2c-0.9-1.5-1.1-2.3-2.7-2.2c-0.3,0-0.6,0.2-0.8,0.5C77.7,127.5,79.1,129,78.3,131.5z"/>
	<path class="st0" d="M96.6,114.6c1.1,3.2,2,7.5,2.8,10.6c1.2,4.8,0.9,8.3,1.6,9"/>
	<path class="st11" d="M15.4,183.7h2c0.5,0,0.9-0.4,0.9-0.9c-0.2-5.8,0.4-12.1,0.5-18c0.2-5.6,0.6-12,0.6-17c0-0.5,0-0.6,0-0.7
		c0-0.2,0.1-0.2-0.2-2.4c0-0.1,0-0.1-0.1-0.2l-0.2-0.4c-0.2-0.5,0-1,0.4-1.2c1.5-0.8,1.2-0.1,3-1c0.2-0.1,0.4-0.3,0.5-0.5l0.4-1.1
		l-2.2,0.3c-0.4,0.1-0.8-0.2-1-0.6c-0.7-1.7-1.9-6-3.3-10.6c-0.3-1.1-2-0.7-1.8,0.4c0.4,2.6,0.7,5.3,0.4,7.9c0-0.1-0.1-0.1-0.1-0.1
		l-1.5,0.5c-0.6,0.2-0.8,0.8-0.5,1.3l0.8,1.4c0.3,0.5,0,1.1-0.5,1.3l-1.5,0.5c-0.7,0.2-0.8,1.1-0.3,1.6c3.1,2.7,5.4-0.6,4.7,16.1
		C16.1,168.1,15,176.1,15.4,183.7L15.4,183.7z"/>
	<path class="st12" d="M167.8,108.8c-1,0.5-2.1,1.4-2.8,2.2c-0.6,0.7-1.4,1.5-1.8,2.3c-0.3,0.5-0.6,1-0.7,1.5l-0.4,1.9l-0.2,1.5
		c-0.1,0.5,0.3,1,0.9,1.1l0.4,0c0.4,0,0.8-0.2,0.9-0.6c4.9-14.5,22.5-10.9,23.7,1.2c1.5,14.7-18.6,17.9-23.2,4.4
		c-0.1-0.4-0.5-0.6-0.9-0.6l-0.6,0c-0.6,0-1,0.5-0.9,1.1c0.6,3.1,1.3,4.5,3.4,7.1c0,0.1,0.1,0.1,0.2,0.2c12.5,9.9,29.5-1,23.4-16.6
		c0-0.1,0-0.1-0.1-0.1C183.4,105.2,178.2,104.8,167.8,108.8L167.8,108.8z"/>
	<path class="st13" d="M167,183.6h5.5c0.5,0,0.9-0.4,0.9-0.9l-0.1-25.2c0-0.5-0.4-0.9-0.9-0.9h-5.3c-0.5,0-0.9,0.4-0.9,0.9
		l-0.1,25.2C166.1,183.2,166.5,183.6,167,183.6z"/>
	<path class="st14" d="M72.4,26.7l-0.3,1.2c-0.1,0.6-0.5,0.9-0.9,0.9c-2.4,0-2.1,0.2-3.3-0.5c-0.4-0.3-0.6-0.8-0.3-1.2
		c1.1-2,0.9-1.3,4-1.4C72.1,25.5,72.5,26.1,72.4,26.7z M62.8,29.8l8.8-0.2c0.5,0,0.9,0.4,0.9,0.9l-0.1,15.7c0,0.4,0.3,0.8,0.7,0.9
		l1.4,0.4c-1.6-2.3-1.1-7-1-10.3c0,0,0-0.1,0-0.1c0-0.7-0.6-9.1-0.8-11.3c0-0.3-0.2-0.6-0.5-0.7c-4.7-2.6,0.7,1.7-7.7-10.8
		c-4.7-7-5.1-6-10.3-9.2c-0.6-0.4-2.9-1.4-5.1-2.1c-1.5-0.5-3-0.6-3.7-1.1l-1.2,0.2c6.3,6,17.8,14,19.8,23.3
		c0.1,0.6-0.3,1.1-0.9,1.1c-4-0.1-8-0.1-11.9-0.1c0,0-0.1,0-0.1,0l-8.6,0.8c-1.1,0.1-1.1,1.7,0,1.8C49.3,29.9,58.8,28.2,62.8,29.8
		L62.8,29.8z"/>
	<path class="st15" d="M160.3,183.6c1.2,0,3.6,0,4.9,0c0.5,0,0.9-0.4,0.9-0.9l0.1-25.1c0-0.5-0.4-0.9-0.9-0.9l-4.4-0.1
		c-0.5,0-0.8,0.3-0.9,0.8c-1.2,6.3-1.1,19.7-0.5,25.4C159.5,183.2,159.8,183.6,160.3,183.6z"/>
	<path class="st16" d="M47.9,47.3l14.4,0.2c0.3,0,0.5-0.1,0.7-0.3l5-5.4c0.1-0.2,0.2-0.4,0.2-0.6l0.3-8.5c0-0.5-0.4-1-0.9-0.9
		l-4.4,0.1c-0.3,0-0.6,0.2-0.7,0.4C60.3,35.1,49.3,46.5,47.9,47.3L47.9,47.3z"/>
	<path class="st17" d="M126.8,94.9c0.9,2.7,2.3-1.9,2.2,3.9c-0.1,2.3-0.3,3.8-0.2,5.9c0,0.5,0.4,0.9,1,0.9l1.9-0.1l0.7-0.1l0.4-8.6
		c0-0.5,0.4-0.9,0.9-0.9l5.1,0c0.5,0,1,0.5,0.9,1c-0.3,2.7,0,5,0,7.6c0,0.5,0.4,0.9,0.9,0.9l1.3,0c0.7,0,1.1-0.4,1.1-0.9l0.3-7.9
		c0-0.5,0.4-0.9,0.9-0.9l5.2-0.1c0.5,0,0.9,0.4,0.9,0.9l-0.2,8.2c0,0.5,0.4,0.9,0.9,0.9l1.6,0.1c0.5,0,1-0.4,1-0.9l0.3-8.1
		c0-0.4,0.2-0.7,0.6-0.8c1.7-0.7,1.3,0.3,1.1-0.6c0-0.2-0.2-0.4-0.3-0.5C150,91,132.7,92.7,126.8,94.9L126.8,94.9z"/>
	<path class="st11" d="M108.5,152c-0.6,0.7,0.6,0.6,1.4,0c0.3-0.2,0.4-0.5,0.4-0.8c-0.2-5,0.3-5.2,0.7-6.5c0.1-0.2,0.5-1.3,0.7-1.5
		c0.3-0.3,0.4-0.6,0.7-1c0.2-0.3,0.5-0.6,0.8-1.1l-2.3,0.9c0,0,0,0-0.1,0l-4.4,2.1c-0.4,0.2-0.8,0.1-1.1-0.2
		c-5.2-5.7-4.4-11.9-6.1-18.8c-0.4-1.4-0.8-3-1.1-4.7c-1.1-6.4-2.7-5.6-1.8,0.3c0.7,4.5,1.4,9.9,1.8,13.4c1.4,10.8,0.9,8.1-1.7,14.4
		c-0.3,0.7,0.4,1.5,1.2,1.2l1.4-0.5c0.5-0.2,1,0.3,0.9,0.9l-0.1,0.3c-0.2,0.7,0.6,1.2,1.1,0.7l2.6-2.4c0.4-0.4,1.1-0.1,1.1,0.5
		l0,0.7c0,0.7,1.1,0.9,1.3,0.2c0.4-1.1,0.6-2.1,1.2-3c0.3-0.5,1.1-0.5,1.5-0.1C110.6,149.2,110,149.8,108.5,152L108.5,152z"/>
	<path class="st2" d="M36.1,47.5c1.9,0.4,5.6,0.1,7.5,0c0.3,0,0.6-0.2,0.8-0.5c2.4-4.1,10.7-9.9,13.1-14.2c0.4-0.7-0.2-1.4-1-1.3
		c-1.9,0.3-4.2,0.4-5.9,0c-0.3-0.1-0.6,0-0.8,0.2c-1.9,2-11.3,11.4-14,14.2C35.1,46.4,35.4,47.3,36.1,47.5z"/>
	<path class="st18" d="M143.8,130.5c-1-0.2-1.5,1.3-0.5,1.7c0.2,0.1,0.5,0.2,0.9,0.4c16.4,8.7,13.1,12.8,15.5,18.6
		c0.1,0.3,0.5,0.6,0.8,0.6c1.2,0,3.7,0,5.2,0c0.6,0,1-0.5,0.9-1.1C164.3,139,151.9,131.7,143.8,130.5z"/>
	<path class="st0" d="M165.7,131.8c-2.3-2.8-3-4.2-3.6-7.6c-0.1-0.4-0.4-0.8-0.9-0.8c-2.4-0.1-9.9-0.2-12.6-0.3
		c-0.5,0-1,0.4-0.9,0.9l0.2,5.3"/>
	<path class="st19" d="M142.8,105.6h2.1l11.8,0.6c0.5,0,0.9-0.3,0.9-0.8l0.7-3.5c-0.4-2.8,3.7-2.7-3-6.8c-1,1.1-0.4-0.2-1.4,0.9
		c-0.1,0.2-0.2,0.4-0.2,0.6l-0.3,8.4c0,0.5-0.5,0.9-1,0.9l-1.6-0.1c-0.5,0-0.9-0.4-0.9-0.9l0.2-8.2c0-0.5-0.4-0.9-0.9-0.9l-5.2,0.1
		c-0.5,0-0.9,0.4-0.9,0.9L142.8,105.6L142.8,105.6z"/>
	<path class="st20" d="M34.7,31.7l2.9,0.3c0.8,0.1,1.1,1,0.6,1.6l-2,2c-0.6,0.6-1.6,0.2-1.6-0.7L34.7,31.7L34.7,31.7z M34.9,46.7
		L48,33.2c0.1-0.1,1.3-1,1.1-1.4c-0.2-0.4-1.6-0.2-1.9-0.2c-4.5,0.3-8-0.8-12.3-0.4c-0.4,0-0.8,0.4-0.8,0.8
		C33.7,36,34.1,43.3,34.9,46.7L34.9,46.7z"/>
	<path class="st0" d="M62.3,95.5c2-1.4,3.2-1.6,3.9-4.7l-1.3,0.6c0,0-0.1,0-0.1,0C55.4,94,48.9,95.2,40,91.7
		c-0.7-0.3-1.4,0.4-1.2,1.1c0.5,1.6,1.5,2.4,3.3,3.7"/>
	<path class="st21" d="M44,47.5l1.7,0.1c0.1,0,0.1,0,0.2,0l1.7-0.3c0.1,0,0.3-0.1,0.4-0.2c1.9-1.4,10.8-10.6,13.7-14.2
		c0.4-0.6,0.1-1.4-0.6-1.5c-0.8-0.1-1.6-0.2-2.5-0.3c-0.4-0.1-0.8,0.2-1,0.6C56.1,36.5,46.1,43,44,47.5L44,47.5z"/>
	<path class="st3" d="M35.6,114.6c-5.9,4.1-0.1,11,5.2,8.3C46,120.2,42.3,110,35.6,114.6z"/>
	<path class="st19" d="M132.3,105.5l5.5,0.2c0,0,0.1,0,0.1,0l0.8,0c0.5,0,0.8-0.4,0.9-0.9c0.1-1.4,0.1-2.6,0.1-3.9
		c0-1.2,0.1-2.5,0.1-3.9c0-0.5-0.4-0.9-0.9-0.9c-1.4,0-3.9,0-5.2,0c-0.5,0-0.9,0.4-0.9,0.9L132.3,105.5L132.3,105.5z"/>
	<path class="st22" d="M138.4,113.1l6.1-0.4c0.5,0,0.9-0.5,0.9-1l-0.2-4.4l-0.1-0.9c0-0.5-0.4-0.9-0.9-0.9h-1.3H140l-1.3,0.1
		c-0.5,0-0.8,0.4-0.9,0.8l-0.5,5.6C137.3,112.7,137.8,113.2,138.4,113.1z"/>
	<path class="st23" d="M168.2,115.4c-0.2,0.4-0.1,0.9,0.2,1.2c2.3,1.9,1.1,0.5,3.6-1.2c3.9-2.7,4.1-1,4.5,1.8c1.9-3.5,0-1.8,1.8-2.5
		c0.3-0.1,0.6-0.1,0.9,0.1c1.8,1.2,1.7,2.1,3.2,2.4c0.4,0.1,0.8-0.1,1-0.4C186.7,112.1,172,107.9,168.2,115.4z"/>
	<path class="st0" d="M135,120.5l0.3-6.7c0-0.4,0.3-0.7,0.7-0.7l0.7,0c0.4,0,0.7-0.3,0.7-0.6l0.5-5.9c0-0.5-0.4-1-0.9-1l-4.6-0.2
		l-0.7,0.1"/>
	<path class="st19" d="M128.9,105.7c-0.1-2.6,0-4.2,0.1-6.8c0.1-4.6-0.7-2.7-1.3-3.3c-0.2-0.2-0.7,0-0.9-0.6c-1.5,1.2-1.5,1-2.7,1.9
		c-0.2,0.2-0.4,0.4-0.4,0.7c0,1.3,0,5.2,0,7c0,0.5,0.4,0.9,0.9,0.9L128.9,105.7L128.9,105.7z"/>
	<line class="st0" x1="95.3" y1="170.4" x2="94.9" y2="183.5"/>
	<path class="st0" d="M41.9,96.6l0.4,1.4c0.1,0.3,0.3,0.5,0.6,0.6c10.4,3.4,9,1.7,18.4-0.1c0.4-0.1,0.7-0.4,0.7-0.8
		c0.1-0.9,0.2-2.2,0.2-2.2"/>
	<path class="st8" d="M93.2,176.9l0.1,6.1c0,0.4,0.4,0.7,0.8,0.7l0.3-0.1c0.3-0.1,0.5-0.3,0.6-0.6l0.4-12.5c0,0,0-0.1,0-0.1l0.4-3.4
		c0-0.3-0.2-0.6-0.5-0.7l-0.6-0.2c-0.4-0.1-0.9,0.2-0.9,0.6L93.2,176.9C93.2,176.9,93.2,176.9,93.2,176.9z"/>
	<line class="st0" x1="125.4" y1="120.6" x2="135" y2="120.5"/>
	<path class="st0" d="M107.3,131.6c-0.7,1.1-1.5,2.1-2.2,3.2 M105.9,144.4l5-2.4"/>
	<path class="st21" d="M62.6,47.5c2.5,1.1,3.7,0.4,4,0c0.1-0.1,0.2-0.1,0.3-0.2l1.1-0.3c0.4-0.1,0.6-0.4,0.7-0.8
		c0.3-2,0.3-2.1-0.1-3.3c-0.2-0.7-1.1-0.9-1.5-0.3C65.5,44.4,62.6,47.5,62.6,47.5L62.6,47.5z"/>
	<path class="st0" d="M19.2,38.5l-2.3-2.3c-0.2-0.2-0.3-0.4-0.3-0.7l0.1-3.6c0-0.4,0.2-0.7,0.5-0.8l1.9-0.9"/>
	<path class="st24" d="M30.4,27.6c1.8,1.5,3,1.4,4.7,0.5c0.4-0.2,0.5-0.6,0.4-1c-0.2-1.3,0.8-1.3-2.3-1.6
		C29.5,25.1,30.8,27,30.4,27.6L30.4,27.6z"/>
	<path class="st25" d="M71.5,25.5c-3.1,0-2.9-0.7-4,1.4c-0.2,0.4-0.1,1,0.3,1.2c1.3,0.8,0.9,0.6,3.3,0.6c0.4,0,0.8-0.3,0.9-0.7
		c0.1-0.4,0.2-0.9,0.3-1.3C72.5,26.1,72.1,25.5,71.5,25.5z"/>
	<path class="st26" d="M36.2,35.5l2-2c0.5-0.5,0.2-1.5-0.6-1.6l-1.9-0.2c-0.5-0.1-1,0.3-1,0.9l-0.1,2.2
		C34.6,35.7,35.6,36.1,36.2,35.5z"/>
	<polyline class="st0" points="134.9,123.1 134.4,122.2 131.4,122.2 	"/>
	<path class="st0" d="M21.9,146.7l0.6-3.1c0.1-0.7-0.5-1.2-1.1-1.1c-0.7,0.2-0.8-0.1-1.9,0.6c-0.4,0.2-0.6,0.8-0.4,1.2l0.2,0.5"/>
	<path class="st0" d="M145.1,107.4l0.3,4.6c0,0.4,0.4,0.8,0.8,0.9l1.3,0.2"/>
	<path class="st27" d="M176.6,122.5c0.6-0.7,0.7-1.2,0.4-2.1c-0.2-0.8-1.3-0.9-1.7-0.2l-0.3,0.6c-0.1,1.1-0.1,1.2,0,1.5
		C175.4,122.9,176.2,123,176.6,122.5z"/>
	<path class="st28" d="M168.8,115.3c0.1,0.1,1.5,1,1.5,1"/>
	<line class="st28" x1="170" y1="114.1" x2="171.2" y2="115.3"/>
	<line class="st28" x1="171.5" y1="113.2" x2="172.5" y2="114.5"/>
	<line class="st28" x1="173.3" y1="112.3" x2="174" y2="113.7"/>
	<line class="st28" x1="175.4" y1="112" x2="175.5" y2="113.6"/>
	<line class="st28" x1="177" y1="111.9" x2="176.8" y2="114.9"/>
	<line class="st28" x1="179" y1="112.1" x2="178.6" y2="114.1"/>
	<line class="st28" x1="181" y1="112.9" x2="179.9" y2="114.6"/>
	<line class="st28" x1="182.5" y1="114.1" x2="181" y2="115.8"/>
	<path class="st3" d="M64.2,115.6c-5.9,4.1-0.1,11,5.2,8.3C74.6,121.2,70.8,111,64.2,115.6z"/>
	<path class="st29" d="M42.9,98.7c10.4,3.4,9,1.7,18.4-0.1c0.4-0.1,0.7-0.4,0.7-0.8c0.1-0.6,0.1-1.3,0.2-1.8c0-0.3,0.2-0.5,0.4-0.7
		c1.8-1.2,2.9-1.5,3.5-4.5l-1.3,0.6c0,0-0.1,0-0.1,0C55.4,94,48.9,95.2,40,91.7c-0.7-0.3-1.4,0.4-1.2,1.1c0.5,1.5,1.4,2.3,3,3.5
		c0.2,0.1,0.3,0.3,0.4,0.5c0.1,0.3,0.1,0.7,0.2,1C42.4,98.3,42.6,98.6,42.9,98.7z"/>
</g>
</svg>
